<svg viewBox="0 0 330 200" xmlns="http://www.w3.org/2000/svg"><g><g><g><g><g><line x1="37" y1="176" x2="32" y2="176" style="visibility: inherit;" fill="rgb(0, 0, 0)" stroke="rgb(204, 204, 204)" stroke-width="1px"></line><line x1="37" y1="162.46153846153845" x2="32" y2="162.46153846153845" style="visibility: inherit;" fill="rgb(0, 0, 0)" stroke="rgb(204, 204, 204)" stroke-width="1px"></line><line x1="37" y1="148.92307692307693" x2="32" y2="148.92307692307693" style="visibility: inherit;" fill="rgb(0, 0, 0)" stroke="rgb(204, 204, 204)" stroke-width="1px"></line><line x1="37" y1="135.38461538461536" x2="32" y2="135.38461538461536" style="visibility: inherit;" fill="rgb(0, 0, 0)" stroke="rgb(204, 204, 204)" stroke-width="1px"></line><line x1="37" y1="121.84615384615384" x2="32" y2="121.84615384615384" style="visibility: inherit;" fill="rgb(0, 0, 0)" stroke="rgb(204, 204, 204)" stroke-width="1px"></line><line x1="37" y1="108.30769230769229" x2="32" y2="108.30769230769229" style="visibility: inherit;" fill="rgb(0, 0, 0)" stroke="rgb(204, 204, 204)" stroke-width="1px"></line><line x1="37" y1="94.76923076923075" x2="32" y2="94.76923076923075" style="visibility: inherit;" fill="rgb(0, 0, 0)" stroke="rgb(204, 204, 204)" stroke-width="1px"></line><line x1="37" y1="81.2307692307692" x2="32" y2="81.2307692307692" style="visibility: inherit;" fill="rgb(0, 0, 0)" stroke="rgb(204, 204, 204)" stroke-width="1px"></line><line x1="37" y1="67.69230769230771" x2="32" y2="67.69230769230771" style="visibility: inherit;" fill="rgb(0, 0, 0)" stroke="rgb(204, 204, 204)" stroke-width="1px"></line><line x1="37" y1="54.15384615384616" x2="32" y2="54.15384615384616" style="visibility: inherit;" fill="rgb(0, 0, 0)" stroke="rgb(204, 204, 204)" stroke-width="1px"></line><line x1="37" y1="40.615384615384585" x2="32" y2="40.615384615384585" style="visibility: inherit;" fill="rgb(0, 0, 0)" stroke="rgb(204, 204, 204)" stroke-width="1px"></line><line x1="37" y1="27.076923076923038" x2="32" y2="27.076923076923038" style="visibility: inherit;" fill="rgb(0, 0, 0)" stroke="rgb(204, 204, 204)" stroke-width="1px"></line><line x1="37" y1="13.53846153846149" x2="32" y2="13.53846153846149" style="visibility: inherit;" fill="rgb(0, 0, 0)" stroke="rgb(204, 204, 204)" stroke-width="1px"></line><line x1="37" y1="0" x2="32" y2="0" style="visibility: inherit;" fill="rgb(0, 0, 0)" stroke="rgb(204, 204, 204)" stroke-width="1px"></line></g><g transform="translate(27, 0)"><text x="0" y="176" dx="0em" dy="0.3em" style="text-anchor: end; visibility: hidden; font-family: Roboto, sans-serif; font-size: 12px; font-weight: 200;" fill="rgb(255, 255, 255)" stroke="none" stroke-width="1px">3</text><text x="0" y="162.46153846153845" dx="0em" dy="0.3em" style="text-anchor: end; visibility: inherit; font-family: Roboto, sans-serif; font-size: 12px; font-weight: 200;" fill="rgb(255, 255, 255)" stroke="none" stroke-width="1px">3.2</text><text x="0" y="148.92307692307693" dx="0em" dy="0.3em" style="text-anchor: end; visibility: hidden; font-family: Roboto, sans-serif; font-size: 12px; font-weight: 200;" fill="rgb(255, 255, 255)" stroke="none" stroke-width="1px">3.4</text><text x="0" y="135.38461538461536" dx="0em" dy="0.3em" style="text-anchor: end; visibility: inherit; font-family: Roboto, sans-serif; font-size: 12px; font-weight: 200;" fill="rgb(255, 255, 255)" stroke="none" stroke-width="1px">3.6</text><text x="0" y="121.84615384615384" dx="0em" dy="0.3em" style="text-anchor: end; visibility: hidden; font-family: Roboto, sans-serif; font-size: 12px; font-weight: 200;" fill="rgb(255, 255, 255)" stroke="none" stroke-width="1px">3.8</text><text x="0" y="108.30769230769229" dx="0em" dy="0.3em" style="text-anchor: end; visibility: inherit; font-family: Roboto, sans-serif; font-size: 12px; font-weight: 200;" fill="rgb(255, 255, 255)" stroke="none" stroke-width="1px">4</text><text x="0" y="94.76923076923075" dx="0em" dy="0.3em" style="text-anchor: end; visibility: hidden; font-family: Roboto, sans-serif; font-size: 12px; font-weight: 200;" fill="rgb(255, 255, 255)" stroke="none" stroke-width="1px">4.2</text><text x="0" y="81.2307692307692" dx="0em" dy="0.3em" style="text-anchor: end; visibility: inherit; font-family: Roboto, sans-serif; font-size: 12px; font-weight: 200;" fill="rgb(255, 255, 255)" stroke="none" stroke-width="1px">4.4</text><text x="0" y="67.69230769230771" dx="0em" dy="0.3em" style="text-anchor: end; visibility: hidden; font-family: Roboto, sans-serif; font-size: 12px; font-weight: 200;" fill="rgb(255, 255, 255)" stroke="none" stroke-width="1px">4.6</text><text x="0" y="54.15384615384616" dx="0em" dy="0.3em" style="text-anchor: end; visibility: inherit; font-family: Roboto, sans-serif; font-size: 12px; font-weight: 200;" fill="rgb(255, 255, 255)" stroke="none" stroke-width="1px">4.8</text><text x="0" y="40.615384615384585" dx="0em" dy="0.3em" style="text-anchor: end; visibility: hidden; font-family: Roboto, sans-serif; font-size: 12px; font-weight: 200;" fill="rgb(255, 255, 255)" stroke="none" stroke-width="1px">5</text><text x="0" y="27.076923076923038" dx="0em" dy="0.3em" style="text-anchor: end; visibility: inherit; font-family: Roboto, sans-serif; font-size: 12px; font-weight: 200;" fill="rgb(255, 255, 255)" stroke="none" stroke-width="1px">5.2</text><text x="0" y="13.53846153846149" dx="0em" dy="0.3em" style="text-anchor: end; visibility: hidden; font-family: Roboto, sans-serif; font-size: 12px; font-weight: 200;" fill="rgb(255, 255, 255)" stroke="none" stroke-width="1px">5.4</text><text x="0" y="0" dx="0em" dy="0.3em" style="text-anchor: end; visibility: hidden; font-family: Roboto, sans-serif; font-size: 12px; font-weight: 200;" fill="rgb(255, 255, 255)" stroke="none" stroke-width="1px">5.6</text></g><line x1="37" y1="0" x2="37" y2="176" fill="rgb(0, 0, 0)" stroke="rgb(204, 204, 204)" stroke-width="1px"></line></g></g><g transform="translate(37, 0)" clip-path="url(#clip_0)"><clipPath id="clip_0"><rect width="293" height="176"></rect></clipPath><g><g><g><line x1="0" y1="0" x2="0" y2="176" fill="rgb(0, 0, 0)" stroke="rgb(189, 189, 189)" stroke-width="1px" opacity="0.25"></line><line x1="41.857142857142854" y1="0" x2="41.857142857142854" y2="176" fill="rgb(0, 0, 0)" stroke="rgb(189, 189, 189)" stroke-width="1px" opacity="0.25"></line><line x1="83.71428571428571" y1="0" x2="83.71428571428571" y2="176" fill="rgb(0, 0, 0)" stroke="rgb(189, 189, 189)" stroke-width="1px" opacity="0.25"></line><line x1="125.57142857142857" y1="0" x2="125.57142857142857" y2="176" fill="rgb(0, 0, 0)" stroke="rgb(189, 189, 189)" stroke-width="1px" opacity="0.25"></line><line x1="167.42857142857142" y1="0" x2="167.42857142857142" y2="176" fill="rgb(0, 0, 0)" stroke="rgb(189, 189, 189)" stroke-width="1px" opacity="0.25"></line><line x1="209.28571428571428" y1="0" x2="209.28571428571428" y2="176" fill="rgb(0, 0, 0)" stroke="rgb(189, 189, 189)" stroke-width="1px" opacity="0.25"></line><line x1="251.14285714285714" y1="0" x2="251.14285714285714" y2="176" fill="rgb(0, 0, 0)" stroke="rgb(189, 189, 189)" stroke-width="1px" opacity="0.25"></line><line x1="293" y1="0" x2="293" y2="176" fill="rgb(0, 0, 0)" stroke="rgb(189, 189, 189)" stroke-width="1px" opacity="0.25"></line></g><g><line x1="0" y1="176" x2="293" y2="176" fill="rgb(0, 0, 0)" stroke="rgb(189, 189, 189)" stroke-width="1px" opacity="0.25"></line><line x1="0" y1="162.46153846153845" x2="293" y2="162.46153846153845" fill="rgb(0, 0, 0)" stroke="rgb(189, 189, 189)" stroke-width="1px" opacity="0.25"></line><line x1="0" y1="148.92307692307693" x2="293" y2="148.92307692307693" fill="rgb(0, 0, 0)" stroke="rgb(189, 189, 189)" stroke-width="1px" opacity="0.25"></line><line x1="0" y1="135.38461538461536" x2="293" y2="135.38461538461536" fill="rgb(0, 0, 0)" stroke="rgb(189, 189, 189)" stroke-width="1px" opacity="0.25"></line><line x1="0" y1="121.84615384615384" x2="293" y2="121.84615384615384" fill="rgb(0, 0, 0)" stroke="rgb(189, 189, 189)" stroke-width="1px" opacity="0.25"></line><line x1="0" y1="108.30769230769229" x2="293" y2="108.30769230769229" fill="rgb(0, 0, 0)" stroke="rgb(189, 189, 189)" stroke-width="1px" opacity="0.25"></line><line x1="0" y1="94.76923076923075" x2="293" y2="94.76923076923075" fill="rgb(0, 0, 0)" stroke="rgb(189, 189, 189)" stroke-width="1px" opacity="0.25"></line><line x1="0" y1="81.2307692307692" x2="293" y2="81.2307692307692" fill="rgb(0, 0, 0)" stroke="rgb(189, 189, 189)" stroke-width="1px" opacity="0.25"></line><line x1="0" y1="67.69230769230771" x2="293" y2="67.69230769230771" fill="rgb(0, 0, 0)" stroke="rgb(189, 189, 189)" stroke-width="1px" opacity="0.25"></line><line x1="0" y1="54.15384615384616" x2="293" y2="54.15384615384616" fill="rgb(0, 0, 0)" stroke="rgb(189, 189, 189)" stroke-width="1px" opacity="0.25"></line><line x1="0" y1="40.615384615384585" x2="293" y2="40.615384615384585" fill="rgb(0, 0, 0)" stroke="rgb(189, 189, 189)" stroke-width="1px" opacity="0.25"></line><line x1="0" y1="27.076923076923038" x2="293" y2="27.076923076923038" fill="rgb(0, 0, 0)" stroke="rgb(189, 189, 189)" stroke-width="1px" opacity="0.25"></line><line x1="0" y1="13.53846153846149" x2="293" y2="13.53846153846149" fill="rgb(0, 0, 0)" stroke="rgb(189, 189, 189)" stroke-width="1px" opacity="0.25"></line><line x1="0" y1="0" x2="293" y2="0" fill="rgb(0, 0, 0)" stroke="rgb(189, 189, 189)" stroke-width="1px" opacity="0.25"></line></g></g></g><g><g><line x1="0" y1="379.07692307692315" x2="293" y2="379.07692307692315" fill="rgb(0, 0, 0)" stroke="rgb(153, 153, 153)" stroke-width="1.5px"></line></g></g><g><g><line x1="-627.8571428571429" y1="0" x2="-627.8571428571429" y2="176" fill="rgb(0, 0, 0)" stroke="rgb(153, 153, 153)" stroke-width="1.5px"></line></g></g><g><g><g><g><g><path stroke="rgb(255, 112, 67)" stroke-width="2px" d="M18.032894285714285,-1.5673920513007502L18.179394285714285,3.445948980257679L18.580385714285715,-2.1528737102702635L19.433434285714284,-3.0370709582685826L19.609234285714283,33.416112029660525L20.026968571428572,16.169761089688457L20.037014285714285,50.974786563530756L20.156725714285713,32.42145440730465L20.250485714285713,40.21629996431113L20.408705714285713,52.590965763431086L20.666545714285714,7.224734995847948L20.94698857142857,-11.178283964721317L20.976288571428572,36.24787901626838L21.171342857142857,14.54698353004198L21.266777142857144,48.819689683684686L21.3011,57.14987218001105L21.53298857142857,7.520045728478852L21.851102857142855,0.07324707965820743L21.89882,23.827154007973256L22.17089142857143,-0.5389629425410902L23.12439714285714,-7.088965298659748L23.19136857142857,19.788865607711436L23.54799142857143,19.758023015462875L23.59905714285714,7.270859011555389L23.644262857142856,5.021419497087374L24.072879999999998,35.44838589785861L24.101342857142857,-8.684639022672364L24.43871142857143,1.2629752253527098L25.198837142857144,-0.3785730378786454L25.33026857142857,-3.327140301482455L26.385068571428572,11.717747566825619L26.69816,16.275956110340637L26.791082857142857,50.18592302208428L26.869774285714286,54.44585181505609L27.37206,39.049702908438896L27.910342857142858,25.597034832875813L28.530665714285714,17.111252938486302L28.731579999999997,24.469540130730593L28.91575142857143,27.677578617576145L29.104945714285712,55.22760594270693L30.769185714285715,27.4028719246231L30.860434285714287,7.2006040047586595L30.936614285714285,18.98121727064369L31.21370857142857,20.808869616442724L31.366068571428574,29.5551250958121L31.432202857142858,13.213947813271519L31.613025714285715,18.709925272247787L31.645674285714286,-7.3251674140251595L31.816451428571426,-0.05575765619755302L31.877562857142856,19.776923495599405L32.06592,20.856528383717787L32.11949714285714,41.21083428533883L32.265997142857145,42.39161733615223L32.708845714285715,52.95510167422739L33.11234857142857,51.36796269098474L33.13578857142857,49.620370087547585L33.91265714285714,59.94134835774189L33.97544285714286,52.83794767713011L34.03069428571428,73.11744169259119L34.23412,77.41578854883295L34.26007142857143,74.4739449404476L34.63343714285714,37.960134598733696L34.74645142857143,38.25491705356117L34.74812571428571,37.91064840859404L34.77993714285714,26.76844996763233L35.11898,52.881301726372655L35.29226857142857,46.057828840435974L35.55931714285715,46.2993797805987L36.02728,55.27325227678772L36.056580000000004,45.54661033917962L36.851865714285715,33.39796319870004L36.85270285714286,40.58240068439429L37.526602857142855,20.002485125931095L38.313517142857144,26.57120519627678L38.67097714285715,28.34165030751969L38.69274285714285,32.08522934842408L38.747994285714285,19.766778102594117L38.864357142857145,71.37143958917065L38.91626,64.8258488421442L39.39008285714286,53.959583542816524L39.537420000000004,43.98349971252881L39.55918571428572,32.85399424608702L39.678897142857146,30.844042571916034L39.92669142857143,37.00403601678241L40.045565714285715,33.50679477901472L40.12425714285715,31.021627996089727L40.13597714285714,30.84594235504568L40.710257142857145,20.438514932258194L40.74123142857143,25.175014336082654L41.15394285714286,49.18661518781248L41.57167714285714,64.33813065866106L41.75752285714286,66.25945610703555L41.95592571428571,32.0347935372682L41.962622857142854,19.585377136483558L42.07312571428571,25.059611338605905L42.19618571428571,26.31936571767673L42.35859142857143,19.281528910774313L42.38203142857143,23.274314967032495L42.661637142857145,53.652739474134776L42.671682857142855,19.88923350006079L42.701820000000005,37.54109719138265L42.74702571428572,54.025893337741266L42.778,46.59764049483228L42.808974285714285,52.395488265123504L42.91194285714286,68.99984601270987L43.18485142857143,63.52117296031524L43.321305714285714,55.165632055185554L43.38325428571428,72.8248175124833L44.123288571428574,50.885909653749046L44.51674571428571,64.953661646366L44.587065714285714,76.03402466209843L45.082654285714284,55.5674247788546L45.10776857142857,45.789736060972615L45.26766285714286,81.78260640239634L45.56233714285714,57.58529354020578L45.802597142857145,70.60884167024722L46.03281142857143,71.3727257033953L46.126571428571424,52.38497246756002L46.61127714285714,60.21044256820122L46.83312,57.728923387224825L46.933577142857146,91.15822829052301L47.31531428571429,64.9510430721954L47.65519428571429,43.35861835007802L47.82848285714286,54.319042986459095L48.152457142857145,30.30428496029493L48.323234285714285,39.39534680813306L48.50740571428571,77.02202852414516L48.56851714285715,67.00870027817399L48.77529142857143,63.74121353754744L48.96867142857143,38.34361822168714L49.69112571428572,47.54865046275991L49.97073142857143,48.92030496740955L50.95102571428572,49.487047435448694L51.0113,57.366907791948286L51.08999142857143,50.4078275458871L51.24737428571428,57.47008903053702L51.314345714285714,62.57820867297967L51.42066285714286,75.54349103724633L51.46335714285715,71.58851199013625L51.50772571428571,57.07283727784075L51.93634285714286,53.60800853782826L52.06024,42.00231451272095L52.40179428571428,49.553181497972105L52.514808571428574,75.01424720256932L52.641217142857144,57.28290745240101L53.20712571428571,71.26762467351392L53.27326,79.5085550099377L54.016642857142855,68.93620412600465L54.38749714285714,54.6841937421292L54.57669142857143,58.199562782236626L54.753328571428575,67.58633218932394L55.66665142857143,61.61659893048138L55.73278571428572,72.33675505953579L56.32297142857143,54.79495887256041L56.96171142857143,63.98373191533311L57.09565428571428,55.34562268473171L57.22541142857143,46.380293485763886L57.30326571428571,44.893047307278664L57.78127428571429,95.83890068285726L58.19482285714285,68.29760169652324L58.52130857142857,57.11539503045901L58.70882857142857,62.746791574315075L58.73645428571428,97.9056165423955L58.86453714285714,87.79041535437361L58.877094285714286,90.42439029773539L59.17930285714286,89.66943403027882L59.37854285714286,108.29220959372314L59.50913714285714,122.93628579229157L60.30023714285714,91.32239722657684L60.71211142857143,81.79339983684751L60.916374285714284,95.52251113107482L61.10305714285714,82.04456840866294L61.581065714285714,92.43329363872242L61.7351,83.9398418589396L61.80793142857143,58.859428656153995L61.95778,106.91817536338888L61.98540571428572,115.09756542123344L62.39142,65.1958861953483L62.541268571428574,72.82824878639465L63.575140000000005,50.11184537122085L63.59774285714286,60.78027626194526L63.61197428571429,40.95480046645204L64.03138285714286,72.1270879496429L64.07072857142857,101.24231921829085L64.17202285714286,107.74397504584829L64.34614857142857,95.79089421095244L64.79736857142858,96.70476254445005L64.80239142857143,52.76348769118327L64.89615142857143,66.37654823745635L65.04516285714286,88.72899771970486L65.65627714285714,91.35247713242386L65.71571428571428,66.20206808534375L66.43816857142858,84.84306608407883L66.77972285714286,96.34492093049536L67.58840285714285,88.71889080010905L67.72067142857144,63.979450841243356L67.88307714285715,68.66362476593892L68.43224285714285,76.80064021037465L68.74031142857143,81.88802267602944L69.07768,87.41628105979434L69.33635714285715,91.25882860057007L69.37151714285714,84.67004536684746L70.32920857142857,106.8399291131373L70.48742857142857,73.40455115215221L70.5251,74.17259378474085L70.87586285714286,92.70871855393497L71.5799,84.04378112484898L71.66110285714285,62.33317269008367L71.83857714285715,74.04833782754179L72.32495714285714,80.86014001623658L72.33667714285714,85.45460893086573L72.56270571428571,63.006064261764614L72.78371142857142,73.8615881514097L72.94779142857143,67.32336416450869L73.40570857142858,74.2296909652767L73.50449142857143,81.06865282661191L73.56811428571429,119.40565139398397L73.85274285714286,132.8298217821536L74.21438857142857,126.57286396021763L74.61454285714285,124.43341305949896L74.65723714285716,126.04503318726186L74.67565428571429,112.41432788636554L74.70328,101.94036895800622L74.72420857142858,98.30349092483374L74.94186571428573,58.43715061334378L75.02892857142857,69.87822617780193L75.03143999999999,83.89042870172324L75.29848857142858,59.20747452497022L75.53791142857143,61.19861238174897L75.68022571428571,52.33310738923562L76.30389714285714,76.9844365066709L76.52406571428571,73.90922668577838L77.61235142857143,78.1944683657338L78.22430285714286,95.07003677928104L78.44530857142857,117.73362809033004L78.56585714285714,82.32725336411386L78.60520285714287,87.22225651253385L78.70314857142857,77.9736281901225L78.80025714285715,92.65878159406148L78.80611714285715,114.0893616923143L79.04470285714287,100.85506542659654L79.63321428571429,106.3653784283212L79.89021714285714,87.46827162204683L80.36487714285715,64.33867499997085L80.42180285714286,99.15379398924033L80.48626285714286,90.32105306121244L80.49798285714286,104.6776878482208L80.53063142857144,120.84368475858695L80.55742000000001,108.44211009080423L81.05300857142858,80.66314437855102L81.41632857142856,85.1467318889245L81.47409142857143,122.47592013358005L81.52850571428571,100.7476513608722L81.71686285714286,88.25199563923965L81.73025714285714,95.46105714353473L81.85080571428571,123.82206110966351L81.87257142857142,82.26992029710819L81.90354571428573,73.97845209375467L82.22417142857144,88.70689923101239L82.24007714285713,80.12096571048244L82.64106857142858,82.34371073638565L83.6808,92.21921730533802L83.70926285714286,64.88138929809163L83.77539714285714,59.01897334936277L84.12532285714285,61.584274540717395L85.08134000000001,93.80515691568647L85.24207142857142,113.83018300720937L85.65059714285715,124.74008966741908L86.00136,119.42587107527868L86.02731142857144,96.85907277850553L86.15037142857142,119.40970964892426L86.42495428571428,105.8625102188167L87.06620571428572,87.81991326395223L87.13736285714286,75.98447326448614L87.25707428571428,103.59673019517004L87.57937428571428,80.25737424240249L87.80791428571429,77.6089629788099L88.20220857142857,110.31864927166095L88.65175428571428,99.68012952318288L88.76979142857142,91.95988646729012L89.21515142857143,105.69685543618834L89.22854571428572,111.78378216007538L89.73920285714286,107.25644671115941L89.79110571428572,90.19677198552972L89.96020857142857,83.17807154843922L90.85009142857143,84.3057055624019L91.12132571428572,107.80162308203246L91.14058,101.43890865428257L91.53654857142857,111.5140206874238L92.04636857142857,136.87461912444348L92.09576,154.72666168650503L92.37871428571428,137.95190242149584L92.45991714285714,145.130730310695L92.66752857142858,147.38741833590618L93.0275,130.5469543631723L93.55908571428571,106.57085802392803L93.76669714285715,72.32589095054969L93.99523714285715,65.89857365160988L94.21624285714286,86.3679830675434L94.26312285714286,90.03107614235897L94.34934857142856,87.81602328645201L95.03664285714285,100.84491287981143L95.2325342857143,103.18648756975882L95.28694857142858,108.15746420651875L95.811,82.06615187314503L96.28817142857143,92.009803616375L96.44722857142857,77.99440263068738L96.63642285714286,100.20412777507708L96.85575428571428,112.44359459435816L97.34213428571428,117.3862537555632L97.71968571428572,127.38541917510025L97.81009714285715,98.25353027609381L98.03612571428572,125.24478080087266L98.62631142857143,105.5471067523836L98.85150285714286,119.89477969521022L98.90089428571429,93.22361238969219L98.96786571428571,125.92900491597426L99.03065142857143,148.77535503229188L99.16626857142857,138.29488338258125L99.25081999999999,147.42857281425427L99.38811142857142,144.8039609399047L99.74306,161.95503445719703L99.75980285714286,144.70685433943237L100.38096285714286,159.44218065316363L100.54420571428571,113.77286900450333L100.57015714285714,101.30427832502771L100.61619999999999,108.18248483230629L100.64550000000001,107.15544403377382L100.65387142857142,125.85384052633401L100.81711428571428,110.33201022024751L101.07746571428572,124.56295300996551L101.43743714285715,136.25460248506582L101.71285714285715,117.42294652146315L101.76141142857142,111.8554264258737L102.23188571428572,109.64639465885958L102.2553257142857,97.08707479486499L102.39680285714286,110.35438744565398L102.68226857142858,98.94207911327578L102.82960571428572,82.23700697066981L102.96689714285715,92.9814009597456L102.97861714285715,108.75831149494293L103.33189142857144,115.4477185488588L103.37960857142858,93.60499493640668L103.48257714285714,58.42375229537765L103.62991428571428,50.13980998975668L103.71362857142856,63.28906177510403L104.69392285714285,81.21410126841275L105.32094285714285,69.17224057437399L105.87010857142857,82.98023690396936L105.87094571428571,59.701505320341354L105.9195,94.79418528730696L106.35565142857143,123.27348406338474L106.69218285714287,140.81098926521685L106.85458857142856,124.70566892346305L106.99522857142858,129.82213863059525L107.04127142857143,115.08951730921652L107.50421142857142,73.02274466850764L107.61220285714286,104.71275005380895L107.92613142857142,69.45559521332498L108.10779142857143,63.65116521468366L108.73481142857143,90.25520530744603L108.76746,104.97535735288704L108.93405142857142,81.94499717352609L109.28565142857144,107.48106902038666L109.50916857142857,122.75880731048171L109.63641428571428,105.32401748424573L109.83649142857143,115.26309992489239L110.09768,129.92484850380112L110.23748285714287,122.1338491563672L110.77074285714286,138.5847489798104L111.11397142857142,108.78049768453587L111.12401714285714,100.09746848564643L111.42538857142857,88.31252842649903L111.56016857142858,96.92422207298928L112.09091714285715,86.12490677894979L112.12272857142857,76.76481035342759L112.18300285714285,76.48932397497721L112.40400857142858,62.82285839490219L112.49442,101.4416799839816L112.89624857142857,91.95544472040697L113.05530571428571,108.96927935853624L113.15241428571429,86.28860426438558L113.36086285714286,71.39923208236931L113.74678571428572,87.64833688031851L114.03727428571428,99.86867718640923L114.29176571428572,136.07855400565566L114.85851142857143,160.72471536425576L115.87396571428572,114.88585578293146L115.87480285714285,148.00426761075946L115.99116571428571,122.2239745162754L116.01628,105.40139215605429L116.05060285714285,99.23431885170048L116.41224857142858,113.51736180005275L116.72199142857143,136.4827129878592L117.07108000000001,152.91315884083002L117.08112571428572,144.90327578827205L117.16902571428571,116.56627436719401L117.4444457142857,131.2332946590033L117.91743142857143,129.45016684948848L117.94505714285714,124.14395617001463L118.38958,118.27166164709594L118.86089142857143,105.10994757795109L118.90944571428571,80.95374038796658L119.09780285714287,98.28885295517327L119.30457714285714,115.58624993510064L120.68167714285715,130.44226298502372L121.18982285714286,139.07882050322883L121.26935142857143,101.08228704352378L121.47110285714285,119.00755434093549L121.66699428571428,131.44921878995794L121.82772571428572,113.86285520163402L121.91478857142857,104.23753780923163L122.5326,106.35309092284365L122.67658857142857,111.54388286932368L122.75025714285714,119.89645266048393L122.83062285714286,127.80393076752682L122.86662,118.75832164223183L123.18473428571428,126.23061906519186L123.30695714285714,114.98554997164216L124.02271428571429,119.01279992082331L124.65392,116.88390053824367L124.69912571428571,112.09329104410004L124.818,76.46980448861447L125.48771428571428,102.15686156561458L125.68862857142857,102.26457733224733L126.02516,101.72776049377447L126.47889142857142,102.27799540759278L126.60195142857143,110.35667503339282L126.91085714285715,113.62791868815467L126.92174,92.64470681685918L126.99289714285715,132.8792091327462L127.3302657142857,136.8837381543022L127.41900285714286,135.06890103467114L127.94807714285714,116.7601882770527L128.16322285714284,127.93845619978029L128.44534,137.55610432665154L128.5700742857143,124.67029589677216L128.8337742857143,92.42775995430428L128.83796,107.5994626272926L129.1267742857143,114.19641710180372L129.15356285714284,114.71121515272137L129.58050571428572,131.32746409576444L129.68263714285715,107.85546682321889L129.9162,111.65520889876906L130.73074,98.84200956965509L130.99778857142857,80.79796274675097L131.11917428571428,85.8731741512056L131.15768285714285,82.93610330570237L131.59802,82.96360994390817L131.6315057142857,108.32950087563724L131.65662,126.70197721183065L131.66499142857143,146.79568454768884L131.7286142857143,146.11352088768032L131.75707714285716,114.23185342428489L132.2468057142857,146.28234619012534L132.44688285714287,134.04040169506976L132.64193714285713,120.42499949623358L133.1701742857143,115.18412755230746L133.20031142857144,100.83723293538088L133.4573142857143,102.61020672336797L133.45815142857143,121.1366368936587L133.92192857142857,123.238424631688L134.03996571428573,120.54043308430126L134.28608571428572,122.5112072476661L134.41668,135.2373013186267L134.79339428571427,120.39693166632627L134.8988742857143,130.92723793233782L135.1567142857143,130.2944129686124L135.2061057142857,114.73312783675638L135.3057257142857,128.46042723916318L136.39987142857143,94.2814344722539L136.46684285714286,72.98131185522732L136.90299428571427,104.70954258752037L137.22445714285715,79.59825949744916L137.8899857142857,119.14739188386612L138.47431142857144,113.18935136191521L138.55718857142858,155.12418527534476L138.67104,157.39351633911014L138.77317142857143,110.2298393801638L138.82172571428572,88.20937016205261L138.87948857142857,111.0716524645693L138.88283714285714,123.69002634390085L139.52325142857143,127.56430501908088L139.72500285714284,141.54604362029767L139.89494285714287,133.69106587883425L139.9954,155.0471475557711L140.62493142857144,165.031037110874L140.71283142857143,155.77211911147631L140.86268,164.87441859917246L140.8744,166.779740435157L140.90453714285715,141.3667935174043L140.93886,118.53101267144018L141.01755142857144,93.41096036728715L141.05857142857144,135.5919607888068L141.28208857142857,156.66261313757195L141.41017142857143,159.42059104773247L142.10248857142858,157.6529710837176L142.3059142857143,152.1116416120695L142.96725714285714,163.0524043726654L143.0233457142857,154.40351011909203L143.07441142857144,153.22187456041254L143.89481142857144,136.82376053477518L144.33431142857143,129.42787471967821L144.66498285714286,141.3591904173688L144.77883428571428,125.50304969776205L144.79139142857142,89.41603387326958L145.3413942857143,125.07132888578568L145.55905142857142,122.50209415952125L145.7658257142857,154.08802642134378L145.88804857142856,133.7907700952191L145.9039542857143,105.15223469647943L145.9592057142857,115.02084662092251L146.0939857142857,113.66041164968695L146.1701657142857,69.9081436807677L146.21034857142857,80.33119203215352L146.37191714285714,74.76427660187925L146.62640857142856,113.8078671085885L147.6443742857143,147.46177175065492L147.86621714285715,140.02877180001732L147.96165142857143,158.28986040760958L148.17679714285714,145.42904390194255L148.53090857142857,103.94421645534823L148.5727657142857,90.49292335277624L148.71675428571427,97.10908056853174L148.74772857142855,112.89120447280474L148.95450285714287,115.8203587639112L149.3320542857143,126.79240165032391L149.3554942857143,104.39852495578931L149.50366857142856,121.03512069199823L149.9942342857143,116.59063019201683L150.01348857142855,128.07916942192583L150.1549657142857,118.07458670799323L150.15580285714285,78.70346526285181L150.20854285714285,106.68640316988058L150.5241457142857,136.87115727527572L150.69659714285714,95.95727876270149L151.12102857142855,103.34912898576096L151.67354285714285,119.36457547025766L152.23108000000002,155.40751340490098L152.42948285714286,174.41220823825307L152.93511714285714,116.91686816523251L153.0472942857143,102.54955515019117L153.21723428571428,98.0946700361033L153.38215142857143,131.32472476054417L153.6341314285714,104.26912168400082L153.65338571428572,92.55995088750385L153.81411714285716,126.51379563860958L154.11297714285715,118.36703428483341L154.17743714285714,115.20189136135227L154.34654,95.69013060069058L154.41769714285715,82.08512844680256L154.5533142857143,96.01060817723116L154.76092571428572,105.08356968398289L155.08992285714285,120.72374187518089L155.2096342857143,159.84949569790004L155.38459714285713,140.36400931777848L155.66169142857143,118.23929041263223L155.79312285714286,93.08270881601383L156.16648857142857,78.5999929090494L156.35986857142856,110.95872140179233L156.62691714285714,87.99234263862647L156.70226,101.62034818665391L156.89061714285714,84.8388473303367L157.14762000000002,87.84475126929576L157.74785142857144,141.79433198152938L158.08940571428573,119.54150303507146L158.12205428571428,103.82603378844072L158.1304257142857,109.09826215632768L158.6009,103.697441837817L158.75577142857142,83.2937357701331L159.22122285714283,114.3207076861634L159.32251714285712,125.24933860377286L159.39032571428572,125.15455956907711L159.49162,135.9012921661007L159.7101142857143,125.31723192713937L159.86833428571427,116.89210753256066L160.42838285714285,136.37328660487293L160.62343714285714,146.64543262811304L161.06126285714288,118.10224887224044L161.14748857142857,116.72157728965281L161.8239,117.8246054501889L161.99300285714284,129.77699077161574L162.2441457142857,109.11786729575188L162.66439142857143,110.16787414378973L163.16667714285714,123.214517140458L163.24369428571427,112.53676739440098L163.34917428571427,143.16911549035152L163.59110857142858,117.25997008297296L163.98372857142857,128.4194383063568L164.0172142857143,140.64451177625696L164.4316,144.71487338185995L165.0762,159.77132350890864L165.36836285714284,126.06683251993351L165.61029714285715,110.08036863004904L165.98282571428572,96.3372287463888L165.98617428571427,147.27939061133992L166.03221714285715,144.34351045604674L166.32940285714287,134.70004430885945L166.47422857142857,99.68665443988293L166.85178,120.75854488185342L167.1991942857143,119.44322648214693L167.47796285714284,128.49708119052013L167.52316857142858,141.29164001539382L167.56921142857144,138.99780481940758L167.57339714285715,137.45698813315593L167.80361142857143,117.70764084977037L167.84295714285713,131.26902561563145L167.8446314285714,109.83535147965532L168.02294285714288,128.28030869428358L168.11670285714285,97.17741866195779L168.57796857142858,123.25601115717316L169.07690571428572,144.08589769584384L169.33893142857144,129.83019215848438L169.80522000000002,129.61076318796924L170.13170571428572,143.4933287576959L170.32173714285713,126.5246227428988L170.33262,130.98569145016387L170.57706571428574,138.906863572397L170.7034742857143,127.42202740763591L170.7269142857143,146.64500909407076L170.90187714285713,123.32756543052596L170.99312571428572,132.5484487197038L171.0400057142857,119.6313233070927L171.08186285714288,133.3272702181048L171.4669485714286,146.31567365430038L171.52889714285715,156.38352885453935L171.75408857142858,125.96017055415993L171.79259714285715,126.79185949708429L172.83232857142858,117.59147804988821L172.84990857142856,108.62046347130914L172.85576857142857,123.31546796785157L172.90850857142857,143.5351864954796L173.24504000000002,134.62762352683254L173.42000285714286,155.64349071390606L173.75904571428572,149.66064722844882L173.84610857142857,156.34379058691903L175.33036285714286,148.95333644838038L176.26628857142856,138.19511752595432L176.60030857142857,144.65090758457046L177.34452857142858,142.015422949931L177.91043714285715,136.74407456134983L177.99666285714287,127.28059813224257L178.17999714285716,136.40669271348017L178.91417142857142,132.16700275906015L179.1067142857143,121.75770616264762L179.14857142857144,151.18655846509162L179.34027714285713,143.87133097185844L179.44324571428572,129.75030196352373L180.34150000000002,117.6952683175373L180.51646285714287,92.46700535087395L180.88564285714284,114.31464382331733L180.88899142857142,119.91799490276446L181.22719714285714,121.67279612472656L181.25063714285713,144.04553628924398L181.56456571428572,142.9459559241248L181.56707714285713,150.689329066419L182.02415714285712,122.87566432499261L182.0702,123.44677803647696L183.02035714285714,109.61950678207248L183.34181999999998,134.68280073015094L183.4548342857143,152.57179497760382L183.80894571428573,137.07712075346433L183.90856571428571,138.9068919823896L184.11868857142858,109.00385386431353L184.33299714285712,84.45164773963681L184.55232857142855,121.7652089666111L185.30492,139.34311163297147L185.82646,136.517856866727L185.95956571428573,169.2074391144022L186.27851714285717,134.10364860235526L186.39487999999997,142.02943840082125L186.96246285714284,155.68611866323917L187.74937714285713,153.53143649429265L188.21733999999998,174.97134250617594L188.38644285714287,162.67506237250814L188.82510571428574,174.09414053535886L188.8987742857143,156.35632645143613L188.90965714285716,141.2333388583917L189.17084571428572,133.61912811784453L189.32655428571428,141.98964398496452L189.35501714285715,106.3378096406782L189.72670857142856,138.76539119118277L190.1996942857143,147.851455549295L190.20890285714287,126.58888776204395L190.37884285714284,144.22273855040544L190.47595142857145,144.01639506458818L190.99163142857142,153.70552560921564L191.25784285714283,148.80751946709188L191.63874285714286,134.78649027569534L192.81325428571427,128.5708760520608L192.87771428571426,144.7776066436689L193.45618,129.8541928642813L193.63867714285712,131.3873342563542L193.66797714285713,157.90215927714488L194.07817714285716,134.74235100498885L194.13008000000002,143.33762416030999L194.17612285714287,122.12885060045284L194.68092000000001,149.7266725428889L195.20246,120.26609268401155L195.26106000000001,130.13100922932222L195.28533714285714,147.74803349732892L196.45733714285714,157.94544767126393L196.5444,193.79665726524334L196.66578571428573,182.29200568351501L196.80475142857142,159.4894086384744L197.10026285714287,149.37199073127422L197.11951714285712,148.8514743741612L197.24508857142857,145.35777277053037L197.98093714285716,157.14959279111184L198.1835257142857,146.19932645666833L198.41457714285715,140.28264542515782L198.47401428571428,171.49840969913012L198.81222,165.41807611169563L199.19395714285716,166.41456801339658L199.2910657142857,169.37930791853975L199.65354857142856,192.2275388573814L200.22113142857143,173.84485719551358L200.30149714285713,170.9178400797781L201.55135142857142,156.5260413844804L202.6463342857143,143.2228877795314L202.94686857142858,128.49855575966592L203.82000857142856,130.14440651769857L203.9020485714286,153.4892109084407L203.9120942857143,152.02420610110406L204.1113342857143,146.53757945618528L204.79444285714285,147.88954666897862L204.86894857142858,158.779442394416L205.11674285714284,175.76397891321213L205.25822000000002,136.37844678677942L205.2598942857143,155.05751827677017L205.43067142857143,139.74798752856208L205.7755742857143,149.5928741023611L205.7780857142857,159.304128509456L206.08196857142855,174.87629177946414L206.12382571428572,189.5123442815457L206.3674342857143,161.0928185797071L206.4963542857143,156.7157546713369L206.60434571428573,136.06945806121558L206.77847142857144,140.52805108560256L206.90906571428573,180.15244560403582L207.16523142857145,136.87012595053747L207.2723857142857,111.76466684135613L207.81820285714284,110.684588514707L208.68632,111.06333067042276L208.78175428571427,114.58851790533357L208.79682285714284,125.72848798741587L209.00024857142859,129.3261892139114L209.86669142857144,124.42921337810645L209.86836571428572,131.56150587579717L209.87924857142858,119.3643024418695L210.00230857142859,100.23229841223707L210.15048285714286,105.83017870178935L210.25763714285713,135.19006184847748L210.30367999999999,117.63495949114775L210.43929714285716,140.5355493406472L210.49203714285713,125.36511317372427L210.69378857142857,111.14335989642204L210.84531142857142,124.79542345081146L211.07803714285714,101.94799522508423L211.19691142857144,130.89522840946464L211.32750571428573,134.45848878658921L211.40619714285714,128.77317582904487L212.14120857142856,155.97234196452428L212.4735542857143,157.34111814445976L212.6024742857143,119.83418138472271L212.7431142857143,121.8748461298871L213.16252285714285,118.86305300733429L213.19768285714287,145.02718732010067L213.69829428571427,174.2574930467329L213.91427714285715,145.77902444883298L214.17379142857143,131.23425239090435L214.34038285714286,155.09885033778778L214.77904571428573,138.1865839969936L214.88117714285713,102.82095777875506L215.4119257142857,130.82378933728756L216.1067542857143,151.50914411394106L216.28757714285715,160.5611187221582L216.61489999999998,129.77598022142593L216.69694,113.60545535791566L217.06109714285714,131.4179367701881L217.28126571428572,139.8227236850846L217.2929857142857,131.03701776536266L218.32267142857145,111.14608385633302L218.40722285714287,114.08759397365557L219.25524857142855,107.98928335046436L219.4352342857143,118.79921012821731L220.11666857142856,110.82148211283784L220.39794857142857,106.28875859612819L220.41134285714284,121.39917385415382L221.0199457142857,132.08179944564282L221.14216857142856,127.12095654539048L221.6176657142857,119.1759437721111L221.72398285714286,106.41042207944754L221.74826000000002,112.76159419944136L221.77421142857142,118.91829051342981L222.27482285714285,152.68781876700473L222.3945342857143,190.21141762081726L222.46903999999998,194.8576845944255L222.83403428571427,170.69679529879772L222.90016857142857,175.51187436414943L223.43342857142858,172.74224859028203L223.72475428571428,161.35775408017582L223.74149714285716,133.08988602495344L223.90725142857144,107.98347544760429L224.43214,144.90787865986368L224.61045142857142,107.33604846620062L224.70504857142856,124.5985134697444L224.8088542857143,130.88836375811616L225.12362000000002,144.09251368192798L225.20817142857143,176.10451404036172L225.2190542857143,150.4724163005692L225.4342,122.04527322910951L225.66273999999999,105.63151738736049L225.86867714285714,127.95211294706472L226.18511714285714,126.22557086412978L226.25125142857144,106.57656566300909L226.38352,112.03778580518227L226.58359714285712,119.22649463139662L227.2993542857143,108.32800775014206L227.4065085714286,103.7117413613232L227.55635714285717,108.39525207340452L227.63086285714286,128.18183649043695L227.98664857142856,145.22214792415997L228.22858285714287,164.73854646370572L228.27713714285713,142.69199098106293L228.7233342857143,138.5181982225771L229.11595428571428,152.21360612367545L229.33863428571428,150.99760924023593L229.51862,139.0928114547861L230.45370857142856,126.21051240622502L230.57509428571427,138.42131852396338L230.6948057142857,155.6653976911509L230.74168571428572,165.76230236825876L230.87730285714284,139.10184013301958L231.20462571428573,137.034513174989L231.33187142857145,141.20421573627343L231.34108,169.58261127582352L231.85508571428574,157.54730588245627L232.0869742857143,158.39012270277607L232.10539142857144,165.7226666204637L232.20752285714283,165.30277252335998L232.25272857142858,148.7549376275977L232.5206142857143,159.1839602196626L232.87388857142858,159.93690647096523L234.02244857142855,158.0357478207552L234.1789942857143,182.92762721089514L234.19155142857144,176.99097503634778L234.25098857142856,169.33147185323895L234.46446,175.01817374257737L234.47283142857142,169.13594321414618L234.83866285714288,142.57132657677496L235.38029428571429,150.5086047557855L235.60213714285715,144.4335247168277L236.16971999999998,141.17287141250344L236.22832,161.61679376096362L236.4895085714286,164.41962858718213L236.54810857142857,143.1403814191362L236.76492857142856,139.7261668115929L236.84278285714285,133.8799519837406L237.2027542857143,135.5385955329427L237.35762571428572,134.48291472849456L237.3693457142857,165.0894401400565L237.5275657142857,159.58693904271777L237.64978857142856,141.80032157241553L237.88502571428572,136.67614866009598L238.00390000000002,146.948270607566L238.0432457142857,140.64332431240615L238.07003428571429,131.77651301067084L238.47437428571428,121.82468419237006L238.47939714285715,118.16080736037395L238.61082857142856,126.9884329401126L238.61250285714289,139.23956761412768L238.68700857142858,127.47503575796729L239.0143314285714,103.66386878237952L239.34835142857142,134.3825637527135L239.37262857142858,113.73462576665216L239.77110857142858,116.81962900848137L239.83808,137.49732162740705L240.03564571428572,134.8363988639893L240.37552571428571,134.20444716281966L240.3788742857143,147.44898442693608L240.73298571428572,158.28254701884194L240.94394571428572,158.16419949003864L241.16830000000002,150.9030588316434L241.3281942857143,136.35438835262184L241.43953428571427,138.99411952280354L241.46464857142857,153.68149028245466L241.7501142857143,161.12721469324836L242.18291714285715,156.91335438498447L242.40978285714286,166.82998507596514L242.4357342857143,168.3985324978402L242.75050000000002,167.7007220471566L242.90704571428572,143.97562051232342L243.40933142857142,151.48272126885738L243.61443142857144,139.37726163939436L244.37288285714286,134.491779393868L244.6123057142857,112.17335930924749L244.9697657142857,139.86741726260675L244.97227714285714,148.72370611364877L245.07357142857143,145.282583700491L245.38498857142858,163.17486755615698L246.1124657142857,139.9712389869694L246.6750257142857,112.31499436874415L247.19740285714286,122.19553653823867L247.22168,133.64127916077376L247.45356857142858,110.49092124871787L247.77000857142858,135.37305710620186L247.88051142857142,136.44848671545643L248.02198857142858,154.5754732548598L248.37693714285712,148.70984330256283L248.38447142857143,120.25945559842472L248.40121428571427,137.55066612873634L248.72686285714286,158.80338082207348L249.1981742857143,157.93058477704818L249.24003142857143,132.21578025324814L249.33630285714287,136.2447821074026L249.5757257142857,128.52013797875946L249.88798,108.2710009625862L250.1048,120.46646598094713L250.2437657142857,119.6727091314619L250.68494,145.50699661488224L251.03737714285717,149.72909209640832L251.41995142857144,167.94981006459827L251.9214,166.237272372518L252.4211742857143,162.75921405639838L252.76858857142858,155.83771039372488L252.83137428571428,135.93823320738875L252.90922857142857,124.67455585367003L253.45420857142858,142.64727947636968L253.5228542857143,112.49211430541314L254.01844285714287,112.50158947792939L254.03769714285713,141.84578318739617L254.2436342857143,163.37578010718678L254.43031714285712,146.65404941948034L254.79196285714286,132.8061012919376L254.79865999999998,151.76394806294803L255.0020857142857,117.74135833972196L256.15232000000003,134.948339549356L256.30049428571425,134.4318922418582L256.33146857142856,146.15113058437277L256.3833714285714,149.06517504533517L256.5641942857143,140.07705645260674L256.65795428571425,146.94009162208985L257.0681542857143,161.45623402223228L257.14266,173.05060351148393L257.17782,170.17093851351595L257.8734857142857,168.12308171913722L257.93962,177.77188475582875L259.48833428571425,140.68334428874365L259.50005428571427,145.88668316203828L259.71603714285715,166.76641975768723L259.97806285714285,154.3786164091496L260.3932857142857,179.53127563350057L260.5397857142857,168.50737387243808L260.72814285714287,171.42837686628135L261.7176457142857,179.4749192800753L261.8557742857143,178.31834883179215L262.78416571428573,174.0300086511636L262.9507571428571,156.2189081588848L263.20524857142857,178.00080654177768L263.2671971428571,177.69309456302486L263.3006828571429,175.40096509869232L264.16042857142855,146.43189985999663L264.18135714285717,161.04233482472696L264.23326,171.2314643854837L264.76149714285714,149.0130616991989L264.86530285714286,160.9479936920704L265.1306771428571,161.44702779201506L265.18341714285714,171.84853307206902L266.15952571428573,173.70312478239404L266.22063714285713,177.07954405419454L266.2591457142857,160.2397064129855L266.39308857142856,141.07480095021768L266.42238857142854,151.2465876765008L266.6149314285714,165.60482422549183L266.81082285714285,159.9140838992149L267.01257428571427,180.80748635966114" style="fill: none;" fill="none"></path></g></g></g></g><g opacity="0.2"><g><g><g><path stroke="rgb(255, 112, 67)" stroke-width="2px" d="M15.873065714285715,-29.020458514873816L15.990265714285714,34.37458683894229L16.350237142857143,11.704375046950107L16.418882857142858,-2.5447105994591617L16.500085714285714,0.7047365628755724L17.136314285714285,-25.160178551307133L17.185705714285714,-48.28305992713344L18.032894285714285,34.788813077486466L18.179394285714285,10.96468764085034L18.580385714285715,-10.550254821777383L18.71684,-62.969257061298094L18.893477142857144,0.2744680551381986L19.209917142857144,-56.9614433875451L19.36395142857143,22.38400738055887L19.433434285714284,8.003097534179668L19.609234285714283,88.09562741793118L20.026968571428572,-9.699691772460977L20.037014285714285,103.18223571777344L20.156725714285713,4.591484656700699L20.250485714285713,51.90856111966645L20.408705714285713,71.1529576228215L20.666545714285714,-60.82459611159106L20.94698857142857,-38.782808743990415L20.976288571428572,107.38711782602162L21.171342857142857,-18.00435814490688L21.266777142857144,100.22874744121843L21.3011,69.645145709698L21.53298857142857,-66.92469318096457L21.851102857142855,-11.096950824444129L21.89882,59.45801426814151L22.17089142857143,-37.08813828688403L23.12439714285714,-9.157450162447443L23.19136857142857,60.10561194786658L23.54799142857143,19.71175912710334L23.59905714285714,-11.459886991060724L23.644262857142856,1.6472602257361508L24.072879999999998,81.08883549616885L24.101342857142857,-74.88417640099163L24.43871142857143,16.18439659705526L25.198837142857144,-2.8408954326923137L25.33026857142857,-7.74999119685247L26.385068571428572,34.28507936917817L26.69816,23.113268925593434L26.791082857142857,101.05087338961087L26.869774285714286,60.8357450045072L27.37206,15.95547954852762L27.910342857142858,5.418032719538747L28.530665714285714,4.382580096905027L28.731579999999997,35.50697091909552L28.91575142857143,32.489636347844026L29.104945714285712,96.55264693040112L30.769185714285715,-14.334229102501538L30.860434285714287,-23.102797875037602L30.936614285714285,36.65213716947114L31.21370857142857,23.5503481351412L31.366068571428574,42.67450831486626L31.432202857142858,-11.297818110539378L31.613025714285715,26.95389146071212L31.645674285714286,-46.37780644343454L31.816451428571426,10.848356980543857L31.877562857142856,49.52594522329476L32.06592,22.475935715895417L32.11949714285714,71.74229313777042L32.265997142857145,44.16279191237228L32.708845714285715,68.80032818134012L33.11234857142857,48.987254216120775L33.13578857142857,46.99898118239181L33.91265714285714,75.42281576303334L33.97544285714286,42.18284665621242L34.03069428571428,103.53668271578275L34.23412,83.8633088331956L34.26007142857143,70.06117952786957L34.63343714285714,-16.81058091383716L34.74645142857143,38.69709073580226L34.74812571428571,37.39424544114331L34.77993714285714,10.055152306189887L35.11898,92.05057936448316L35.29226857142857,35.82261951153093L35.55931714285715,46.66170619084282L36.02728,68.7340610210712L36.056580000000004,30.9566474327674L36.851865714285715,15.174992487980745L36.85270285714286,51.359056912935685L37.526602857142855,-10.86738821176385L38.313517142857144,36.42428530179536L38.67097714285715,30.997317974383996L38.69274285714285,37.70059790978064L38.747994285714285,1.289101233849136L38.864357142857145,148.77843181903546L38.91626,55.00746272160454L39.39008285714286,37.660185593825105L39.537420000000004,29.01937396709734L39.55918571428572,16.159736046424264L39.678897142857146,27.829115060659547L39.92669142857143,46.24402618408201L40.045565714285715,28.26093292236326L40.12425714285715,27.293877821702196L40.13597714285714,30.58241389347954L40.710257142857145,4.827373798076902L40.74123142857143,32.279763441819384L41.15394285714286,85.20401646540714L41.57167714285714,87.06540386493388L41.75752285714286,69.14144427959734L41.95592571428571,-19.30220031738285L41.962622857142854,0.9112525353064633L42.07312571428571,33.27096264178934L42.19618571428571,28.208997286283026L42.35859142857143,8.724773700420652L42.38203142857143,29.263494051419745L42.661637142857145,99.22037623478815L42.671682857142855,-30.75602546105019L42.701820000000005,64.01889272836537L42.74702571428572,78.75308755727914L42.778,35.45526123046873L42.808974285714285,61.09225992056039L42.91194285714286,93.90638263408952L43.18485142857143,55.30316338172325L43.321305714285714,42.63232069749097L43.38325428571428,99.31359569842996L44.123288571428574,17.97754786564751L44.51674571428571,86.05528963529144L44.587065714285714,92.65456918569711L45.082654285714284,24.867524953988855L45.10776857142857,31.12320298414962L45.26766285714286,135.771911914532L45.56233714285714,21.28932424692006L45.802597142857145,90.14416386530948L46.03281142857143,72.51855175311748L46.126571428571424,23.903342613807077L46.61127714285714,71.94864771916315L46.83312,54.0066446157602L46.933577142857146,141.30218564547025L47.31531428571429,25.64026524470401L47.65519428571429,10.969981266902028L47.82848285714286,70.75967994103064L48.152457142857145,-5.717852078951349L48.323234285714285,53.031939579890306L48.50740571428571,133.4620510981633L48.56851714285715,51.98870790921723L48.77529142857143,58.83998342660756L48.96867142857143,0.24722524789660305L49.69112571428572,61.35619882436898L49.97073142857143,50.977786724383996L50.95102571428572,50.33716113750749L51.0113,69.1866983266977L51.08999142857143,39.96920717679536L51.24737428571428,68.063481257512L51.314345714285714,70.24038813664362L51.42066285714286,94.99141458364633L51.46335714285715,65.65604341947113L51.50772571428571,35.29932520939751L51.93634285714286,48.41076542780948L52.06024,24.593773475060075L52.40179428571428,60.87948197584884L52.514808571428574,113.20584575946513L52.641217142857144,30.685897827148416L53.20712571428571,92.24470050518327L53.27326,91.8699505145733L54.016642857142855,53.07767780010515L54.38749714285714,33.30617816631609L54.57669142857143,63.47261634239783L54.753328571428575,81.66648629995493L55.66665142857143,52.66199904221753L55.73278571428572,88.41698925311746L56.32297142857143,28.48226459209734L56.96171142857143,77.76689147949217L57.09565428571428,42.38845883882961L57.22541142857143,32.93229968731218L57.30326571428571,42.66217803955076L57.78127428571429,172.2576807462252L58.19482285714285,26.985653217022215L58.52130857142857,40.34208503136267L58.70882857142857,71.19388639009914L58.73645428571428,150.6438539945162L58.86453714285714,72.61761357234073L58.877094285714286,94.37535271277794L59.17930285714286,88.53699962909403L59.37854285714286,136.2263729388897L59.50913714285714,144.90240009014423L60.30023714285714,43.90156437800479L60.71211142857143,67.49990375225359L60.916374285714284,116.11617807241586L61.10305714285714,61.82765432504506L61.581065714285714,108.01638148381159L61.7351,71.1996641892653L61.80793142857143,21.238808851975634L61.95778,179.00629542424127L61.98540571428572,127.36665050800029L62.39142,-9.6566326434796L62.541268571428574,84.27679267296423L63.575140000000005,16.03724024846001L63.59774285714286,76.78292259803185L63.61197428571429,11.216586773212121L64.03138285714286,118.88551917442908L64.07072857142857,144.91516612126276L64.17202285714286,117.49645878718451L64.34614857142857,77.86127295860877L64.79736857142858,98.0755650446965L64.80239142857143,-13.148424588716974L64.89615142857143,86.79613905686597L65.04516285714286,122.25767194307767L65.65627714285714,95.28769625150241L65.71571428571428,28.476454514723542L66.43816857142858,112.80456308218149L66.77972285714286,113.59770320012018L67.58840285714285,77.27984560452973L67.72067142857144,26.87029090294468L67.88307714285715,75.68988565298227L68.43224285714285,89.00616337702823L68.74031142857143,89.51909637451172L69.07768,95.70866863544168L69.33635714285715,97.02264991173377L69.37151714285714,74.78687051626352L70.32920857142857,140.0947547325721L70.48742857142857,23.25148421067456L70.5251,75.32465773362378L70.87586285714286,120.5129057077261L71.5799,71.04637498121994L71.66110285714285,29.767260037935685L71.83857714285715,91.62108553372897L72.32495714285714,91.07784329927884L72.33667714285714,92.34631230280948L72.56270571428571,29.333247258112966L72.78371142857142,90.14487398587738L72.94779142857143,57.516028184157136L73.40570857142858,84.58918116642877L73.50449142857143,91.32709561861478L73.56811428571429,176.91114924504205L73.85274285714286,152.96607736440805L74.21438857142857,117.18742722731369L74.61454285714285,121.22423670842096L74.65723714285716,128.46246337890625L74.67565428571429,91.96826993502103L74.70328,86.22943056546723L74.72420857142858,92.8481738750751L74.94186571428573,-1.362359853891256L75.02892857142857,87.03983952448917L75.03143999999999,104.90873248760515L75.29848857142858,22.18304325984073L75.53791142857143,64.18531916691705L75.68022571428571,39.03484990046573L76.30389714285714,113.96143018282376L76.52406571428571,69.29641195443959L77.61235142857143,84.62233088566705L78.22430285714286,120.38338939960185L78.44530857142857,151.72901505690353L78.56585714285714,29.217691274789637L78.60520285714287,94.56476123516374L78.70314857142857,64.10068570650539L78.80025714285715,114.68651169996994L78.80611714285715,146.23523183969348L79.04470285714287,81.00362102801982L79.63321428571429,114.6308479309082L79.89021714285714,59.1226114126352L80.36487714285715,29.64428006685695L80.42180285714286,151.37647247314453L80.48626285714286,77.07194166917066L80.49798285714286,126.21264002873346L80.53063142857144,145.0926801241361L80.55742000000001,89.8397480891301L81.05300857142858,38.994695810171265L81.41632857142856,91.87211315448465L81.47409142857143,178.46970250056341L81.52850571428571,68.1552482018104L81.71686285714286,69.50851205679086L81.73025714285714,106.27464939997745L81.85080571428571,166.36356705885666L81.87257142857142,19.941709078275213L81.90354571428573,61.54124978872445L82.22417142857144,110.79956993689903L82.24007714285713,67.24206542968749L82.64106857142858,85.67782827524037L83.6808,107.03247715876651L83.70926285714286,23.874647287222025L83.77539714285714,50.22534942626951L84.12532285714285,65.43222632774939L85.08134000000001,142.13648047814002L85.24207142857142,143.86772214449368L85.65059714285715,141.1049496577336L86.00136,111.45454318706804L86.02731142857144,63.00887533334584L86.15037142857142,153.23566495455228L86.42495428571428,85.54171107365534L87.06620571428572,60.75601783165564L87.13736285714286,58.23131326528695L87.25707428571428,145.0151155911959L87.57937428571428,45.248340313251184L87.80791428571429,73.63634608342096L88.20220857142857,159.3831787109375L88.65175428571428,83.72234990046573L88.76979142857142,80.37952188345102L89.21515142857143,126.30230888953575L89.22854571428572,120.91417224590593L89.73920285714286,100.46544353778543L89.79110571428572,64.60725989708533L89.96020857142857,72.65002089280347L90.85009142857143,85.99715658334584L91.12132571428572,143.04549936147836L91.14058,91.89483701265775L91.53654857142857,126.62668873713568L92.04636857142857,174.91551677997296L92.09576,181.50472552959735L92.37871428571428,112.7897635239821L92.45991714285714,155.89897214449368L92.66752857142858,150.77245037372296L93.0275,105.2862584040715L93.55908571428571,70.60671351506159L93.76669714285715,20.958440340482245L93.99523714285715,56.257597703200105L94.21624285714286,117.07209719144382L94.26312285714286,95.52571575458231L94.34934857142856,84.49344400259164L95.03664285714285,120.38824726985052L95.2325342857143,106.69884960467996L95.28694857142858,115.61392916165866L95.811,42.92918337308442L96.28817142857143,106.92528123121994L96.44722857142857,56.97130115215593L96.63642285714286,133.51871549166165L96.85575428571428,130.80279482327975L97.34213428571428,124.80024249737077L97.71968571428572,142.3841673044058L97.81009714285715,54.55569692758412L98.03612571428572,165.73165658804086L98.62631142857143,76.00059567964992L98.85150285714286,141.41628910945013L98.90089428571429,53.216861431415246L98.96786571428571,174.9870937053974L99.03065142857143,183.04488020676834L99.16626857142857,122.5741759080153L99.25081999999999,161.1291069617638L99.38811142857142,140.8670431283804L99.74306,187.68164473313553L99.75980285714286,118.83458416278545L100.38096285714286,181.54517012376053L100.54420571428571,45.2689015315129L100.57015714285714,82.6013923058143L100.61619999999999,118.49979459322415L100.64550000000001,105.61488283597507L100.65387142857142,153.90143526517429L100.81711428571428,87.04926476111778L101.07746571428572,145.9093671945425L101.43743714285715,153.79207669771634L101.71285714285715,89.17546257605919L101.76141142857142,103.50414628248947L102.23188571428572,106.33284700833835L102.2553257142857,78.24809499887319L102.39680285714286,130.25535642183743L102.68226857142858,81.82361661470851L102.82960571428572,57.17939875676079L102.96689714285715,109.09799194335938L102.97861714285715,132.42367729773886L103.33189142857144,125.48182912973256L103.37960857142858,60.840909517728356L103.48257714285714,5.651888333834103L103.62991428571428,37.713896531325105L103.71362857142856,83.01293945312499L104.69392285714285,108.10166050837589L105.32094285714285,51.1094495333158L105.87010857142857,103.69223139836237L105.87094571428571,24.783407944899324L105.9195,147.4332052377554L106.35565142857143,165.9924322275015L106.69218285714287,167.117247067965L106.85458857142856,100.54768841083231L106.99522857142858,137.49684319129355L107.04127142857143,92.99058532714844L107.50421142857142,9.922585707444386L107.61220285714286,152.2477581317608L107.92613142857142,16.569862952599138L108.10779142857143,54.94452021672173L108.73481142857143,130.16126544658954L108.76746,127.05558542104868L108.93405142857142,47.39945690448465L109.28565142857144,145.78517679067758L109.50916857142857,145.67541474562424L109.63641428571428,79.17183274489182L109.83649142857143,130.17172358586237L110.09768,151.9174713721642L110.23748285714287,110.44735013521634L110.77074285714286,163.2610987149752L111.11397142857142,64.07412074162409L111.12401714285714,87.07292468731218L111.42538857142857,70.63511833777794L111.56016857142858,109.84176254272461L112.09091714285715,69.92593383789061L112.12272857142857,62.72466571514421L112.18300285714285,76.07609440730167L112.40400857142858,42.32316002478966L112.49442,159.36991236760065L112.89624857142857,77.72609182504506L113.05530571428571,134.49003131573016L113.15241428571429,52.26759162315955L113.36086285714286,49.065173809344934L113.74678571428572,112.02199407724233L114.03727428571428,118.19918764554538L114.29176571428572,190.39336923452527L114.85851142857143,197.69395740215595L115.87396571428572,46.12756641094499L115.87480285714285,197.6818853525015L115.99116571428571,83.55353487454926L116.01628,80.16751861572264L116.05060285714285,89.98370889516977L116.41224857142858,134.94192622258112L116.72199142857143,170.93073976956882L117.07108000000001,177.5588276202862L117.08112571428572,132.8884512094351L117.16902571428571,74.0607722355769L117.4444457142857,153.23382509671725L117.91743142857143,126.77547513521634L117.94505714285714,116.18464015080377L118.38958,109.46321986271784L118.86089142857143,85.36737647423377L118.90944571428571,44.71942960298976L119.09780285714287,124.29152180598334L119.30457714285714,141.53234540499173L120.68167714285715,152.72628255990833L121.18982285714286,152.03365678053635L121.26935142857143,44.087486853966325L121.47110285714285,145.89545528705304L121.66699428571428,150.11171546349158L121.82772571428572,87.48330981914812L121.91478857142857,89.79956172062799L122.5326,109.52642059326172L122.67658857142857,119.3300707890437L122.75025714285714,132.4253073472243L122.83062285714286,139.6651479280912L122.86662,105.18990795428934L123.18473428571428,137.4390651996319L123.30695714285714,98.1179463313176L124.02271428571429,125.0536748445951L124.65392,113.69055146437424L124.69912571428571,104.90737680288461L124.818,23.034574655386088L125.48771428571428,140.68744718111478L125.68862857142857,102.4261509821965L126.02516,100.92253523606519L126.47889142857142,103.10334777832031L126.60195142857143,122.47469447209284L126.91085714285715,118.53478417029747L126.92174,61.169889009915856L126.99289714285715,193.23096260657675L127.3302657142857,142.8905316866361L127.41900285714286,132.3466453552246L127.94807714285714,89.297119140625L128.16322285714284,144.70585808387168L128.44534,151.98257651695837L128.5700742857143,105.34158325195312L128.8337742857143,44.06395604060245L128.83796,130.35701663677509L129.1267742857143,124.09184881357045L129.15356285714284,115.4834122290978L129.58050571428572,156.25183751032904L129.68263714285715,72.64747091440053L129.9162,117.35482201209435L130.73074,79.62221057598406L130.99778857142857,53.73189251239481L131.11917428571428,93.4859912578876L131.15768285714285,78.5304970374474L131.59802,83.00486990121694L131.6315057142857,146.37833727323093L131.65662,154.2606917161208L131.66499142857143,176.9362455514761L131.7286142857143,145.0902753976675L131.75707714285716,66.40935222919168L132.2468057142857,194.35808533888596L132.44688285714287,115.67748495248647L132.64193714285713,100.00189619797925L133.1701742857143,107.32281963641826L133.20031142857144,79.31689100999097L133.4573142857143,105.26966740534854L133.45815142857143,148.9262821490948L133.92192857142857,126.39110623873196L134.03996571428573,116.49344576322116L134.28608571428572,125.46736849271335L134.41668,154.3264424250676L134.79339428571427,98.1363771878756L134.8988742857143,146.72269733135516L135.1567142857143,129.34517552302435L135.2061057142857,91.39120013897234L135.3057257142857,149.05137634277344L136.39987142857143,43.012945321890015L136.46684285714286,41.03112792968748L136.90299428571427,152.30188868596002L137.22445714285715,41.93133486234223L137.8899857142857,178.4710904634916L138.47431142857144,104.25229057898888L138.55718857142858,218.02643614548904L138.67104,160.79751293475812L138.77317142857143,39.48432394174428L138.82172571428572,55.17866633488579L138.87948857142857,145.36507591834433L138.88283714285714,142.61758716289813L139.52325142857143,133.37572303185095L139.72500285714284,162.5186515221229L139.89494285714287,121.90859926663913L139.9954,187.08127007117636L140.62493142857144,180.00687144352838L140.71283142857143,141.88374211237982L140.86268,178.52786783071667L140.8744,169.63772318913385L140.90453714285715,103.24737314077524L140.93886,84.27734140249399L141.01755142857144,55.730881911057665L141.05857142857144,198.86346142108624L141.28208857142857,188.26859166071966L141.41017142857143,163.55755791297324L142.10248857142858,155.0015411376953L142.3059142857143,143.79964740459735L142.96725714285714,179.46354851355918L143.0233457142857,141.43016873873196L143.07441142857144,151.44942122239334L143.89481142857144,112.2265894963191L144.33431142857143,118.33404599703275L144.66498285714286,159.25616396390475L144.77883428571428,101.71883861835184L144.79139142857142,35.28551013653093L145.3413942857143,178.55427140455978L145.55905142857142,118.64824207012468L145.7658257142857,201.46692481407754L145.88804857142856,103.34488560603214L145.9039542857143,62.194431598369874L145.9592057142857,129.82376450758713L146.0939857142857,111.61975919283353L146.1701657142857,4.2797417273887906L146.21034857142857,95.96576455923227L146.37191714285714,66.41390345646784L146.62640857142856,172.37325286865234L147.6443742857143,197.9426287137545L147.86621714285715,128.879271874061L147.96165142857143,185.68149331899792L148.17679714285714,126.137819143442L148.53090857142857,41.71697528545671L148.5727657142857,70.31598369891825L148.71675428571427,107.03331639216495L148.74772857142855,136.56439032921423L148.95450285714287,120.21409020057091L149.3320542857143,143.2504659799429L149.3554942857143,70.80770991398737L149.50366857142856,145.99001429631159L149.9942342857143,109.92389444204477L150.01348857142855,145.31197826678937L150.1549657142857,103.06771263709435L150.15580285714285,19.646783095139696L150.20854285714285,148.66081003042368L150.5241457142857,182.14828843336838L150.69659714285714,34.58646099384012L151.12102857142855,114.43690432035007L151.67354285714285,143.38774519700272L152.23108000000002,209.471920306866L152.42948285714286,202.91925048828125L152.93511714285714,30.673858055701608L153.0472942857143,80.9985856276292L153.21723428571428,91.41234236497144L153.38215142857143,181.16980684720554L153.6341314285714,63.685717069185685L153.65338571428572,74.99619469275841L153.81411714285716,177.44456276526816L154.11297714285715,106.14689225416916L154.17743714285714,110.45417697613054L154.34654,66.422489459698L154.41769714285715,61.677625215970544L154.5533142857143,116.89882777287409L154.76092571428572,118.69301194411057L155.08992285714285,144.1840001619779L155.2096342857143,218.53812643197864L155.38459714285713,111.13577974759616L155.66169142857143,85.05221205491284L155.79312285714286,55.347836421086214L156.16648857142857,56.875919048602746L156.35986857142856,159.4968141409067L156.62691714285714,53.54277449387769L156.70226,122.06235650869516L156.89061714285714,59.66659604586086L157.14762000000002,92.35360717773438L157.74785142857144,222.71870304987982L158.08940571428573,86.16225961538461L158.12205428571428,80.25282991849457L158.1304257142857,117.00660470815805L158.6009,95.59621136005106L158.75577142857142,52.68817666860726L159.22122285714283,160.86116556020883L159.32251714285712,141.64228498018704L159.39032571428572,125.0123910170335L159.49162,152.0213910616361L159.7101142857143,109.4411415686974L159.86833428571427,104.2544209406926L160.42838285714285,165.59505521334134L160.62343714285714,162.05365166297324L161.06126285714288,75.28747323843149L161.14748857142857,114.65056991577148L161.8239,119.4791476909931L161.99300285714284,147.70556875375598L162.2441457142857,78.12918208195612L162.66439142857143,111.74288441584659L163.16667714285714,142.78448163546048L163.24369428571427,96.52014277531549L163.34917428571427,189.11763763427734L163.59110857142858,78.39625197190503L163.98372857142857,145.15864064143256L164.0172142857143,158.98212198110727L164.4316,150.82041579026443L165.0762,182.35599869948166L165.36836285714284,75.51009603647084L165.61029714285715,86.10067279522234L165.98282571428572,75.72251892089842L165.98617428571427,223.69263340876654L166.03221714285715,139.93969022310696L166.32940285714287,120.23484508807842L166.47422857142857,47.166569636418245L166.85178,152.36638054480918L167.1991942857143,117.47024888258713L167.47796285714284,142.07786325307993L167.52316857142858,160.48347825270432L167.56921142857144,135.5570520254282L167.57339714285715,135.14576310377853L167.80361142857143,88.083619924692L167.84295714285713,151.61110276442307L167.8446314285714,77.68484027569109L168.02294285714288,155.94774451622595L168.11670285714285,50.523083613469026L168.57796857142858,162.37389989999622L169.07690571428572,175.33072750384991L169.33893142857144,108.44663385244516L169.80522000000002,129.2816197321965L170.13170571428572,164.31717711228592L170.32173714285713,101.07156372070312L170.33262,137.67729451106146L170.57706571428574,150.78862175574668L170.7034742857143,110.19477316049428L170.7269142857143,175.47948162372296L170.90187714285713,88.35139993520883L170.99312571428572,146.37977365347055L171.0400057142857,100.25563518817606L171.08186285714288,153.8711905846229L171.4669485714286,165.79827880859375L171.52889714285715,171.48531165489786L171.75408857142858,80.32513310359073L171.79259714285715,128.03939291147083L172.83232857142858,103.79090587909403L172.84990857142856,95.16394160344049L172.85576857142857,145.35797471266525L172.90850857142857,173.86476428692157L173.24504000000002,121.26627907386192L173.42000285714286,187.1672914945162L173.75904571428572,140.6863820002629L173.84610857142857,166.36850562462442L175.33036285714286,137.8676552405724L176.26628857142856,122.05778914231519L176.60030857142857,154.33459267249472L177.34452857142858,138.06219599797174L177.91043714285715,128.83705197847806L177.99666285714287,113.08538348858171L178.17999714285716,150.09583458533652L178.91417142857142,125.80746782743014L179.1067142857143,106.14376126802884L179.14857142857144,195.3298369187575L179.34027714285713,132.89848973200873L179.44324571428572,108.56875845102162L180.34150000000002,99.61271784855768L180.51646285714287,54.624610900878885L180.88564285714284,147.08610153198242L180.88899142857142,128.3230215219351L181.22719714285714,124.30499795766977L181.25063714285713,177.6046465360201L181.56456571428572,141.29658537644607L181.56707714285713,162.3043887798603L182.02415714285712,81.15516721285304L182.0702,124.30344860370342L183.02035714285714,88.87859990046573L183.34181999999998,172.27774165226862L183.4548342857143,179.40528634878308L183.80894571428573,113.8351094172551L183.90856571428571,141.65154882577747L184.11868857142858,64.1492966871995L184.33299714285712,47.62333855262169L184.55232857142855,177.73555080707257L185.30492,165.70996563251202L185.82646,132.2799747173603L185.95956571428573,218.24181248591498L186.27851714285717,81.44796283428484L186.39487999999997,153.9181230985201L186.96246285714284,176.171139056866L187.74937714285713,150.2994132408729L188.21733999999998,207.13120152400091L188.38644285714287,144.23064217200644L188.82510571428574,191.2227577796349L188.8987742857143,129.74960532555212L188.90965714285716,118.54885746882513L189.17084571428572,122.19781200702373L189.32655428571428,154.54541778564453L189.35501714285715,52.86005812424878L189.72670857142856,187.40676351693958L190.1996942857143,161.48055208646335L190.20890285714287,94.69503608116736L190.37884285714284,170.67351473294772L190.47595142857145,143.70687983586237L190.99163142857142,168.23922142615683L191.25784285714283,141.46051025390625L191.63874285714286,113.75494648860052L192.81325428571427,119.24745471660906L192.87771428571426,169.087702531081L193.45618,107.46907219519981L193.63867714285712,133.68704634446365L193.66797714285713,197.67439680833084L194.07817714285716,100.00263859675479L194.13008000000002,156.23053389329178L194.17612285714287,90.31569026066705L194.68092000000001,191.12340545654297L195.20246,76.0752228956956L195.26106000000001,144.92838404728815L195.28533714285714,174.17356989933893L196.45733714285714,173.24156893216647L196.5444,247.57347165621243L196.66578571428573,165.03502831092246L196.80475142857142,125.28551307091345L197.10026285714287,134.195863870474L197.11951714285712,148.07069983849158L197.24508857142857,140.1172203650841L197.98093714285716,174.83732282198392L198.1835257142857,129.773926955003L198.41457714285715,131.40762387789212L198.47401428571428,218.32205611008865L198.81222,156.29757573054388L199.19395714285716,167.90930586594803L199.2910657142857,173.8264177762545L199.65354857142856,226.4998852656438L200.22113142857143,146.27083470271185L200.30149714285713,166.52731440617487L201.55135142857142,134.93834334153397L202.6463342857143,123.26815737210788L202.94686857142858,106.41205772986778L203.82000857142856,132.6131826547476L203.9020485714286,188.50641749455377L203.9120942857143,149.82669889009915L204.1113342857143,138.3076394888071L204.79444285714285,149.91749748816855L204.86894857142858,175.1142859825721L205.11674285714284,201.24078369140625L205.25822000000002,77.30014859713039L205.2598942857143,183.07612551175632L205.43067142857143,116.78369140625L205.7755742857143,164.36020396305963L205.7780857142857,173.87101012009842L206.08196857142855,198.23453668447644L206.12382571428572,211.46642303466797L206.3674342857143,118.46353002694936L206.4963542857143,150.15015880878155L206.60434571428573,105.10001314603366L206.77847142857144,147.21594062218298L206.90906571428573,239.58903738168567L207.16523142857145,71.94664647028995L207.2723857142857,74.10647817758412L207.81820285714284,109.06447102473331L208.68632,111.63144390399638L208.78175428571427,119.87629875769981L208.79682285714284,142.43844311053937L209.00024857142859,134.7227410536546L209.86669142857144,117.08374962439903L209.86836571428572,142.25994462233322L209.87924857142858,101.06849729097806L210.00230857142859,71.53429236778845L210.15048285714286,114.22699913611778L210.25763714285713,179.22988656850964L210.30367999999999,91.30230595515323L210.43929714285716,174.88643411489633L210.49203714285713,102.60945892333984L210.69378857142857,89.81072998046875L210.84531142857142,145.27351878239557L211.07803714285714,67.67685288649338L211.19691142857144,174.31607818603516L211.32750571428573,139.80337935227615L211.40619714285714,120.24520639272836L212.14120857142856,196.7710911677434L212.4735542857143,159.39428241436298L212.6024742857143,63.573776245117166L212.7431142857143,124.93584324763373L213.16252285714285,114.3453633235051L213.19768285714287,184.2733887892503L213.69829428571427,218.10295163668118L213.91427714285715,103.06132155198316L214.17379142857143,109.4170943040114L214.34038285714286,190.89574725811298L214.77904571428573,112.81818448580228L214.88117714285713,49.77251845139722L215.4119257142857,172.8280366750864L216.1067542857143,182.5371762789213L216.28757714285715,174.13908063448392L216.61489999999998,83.59827247032752L216.69694,89.34966806265024L217.06109714285714,158.13665888859674L217.28126571428572,152.42990405742938L217.2929857142857,117.85845888577975L218.32267142857145,81.30968299278845L218.40722285714287,118.4998591496394L219.25524857142855,98.84181741567758L219.4352342857143,135.01410029484674L220.11666857142856,98.85489008976862L220.39794857142857,99.48967332106369L220.41134285714284,144.06479674119217L221.0199457142857,148.10573783287634L221.14216857142856,119.67969219501201L221.6176657142857,107.258424612192L221.72398285714286,87.26213954045221L221.74826000000002,122.2883523794321L221.77421142857142,128.15333498441257L222.27482285714285,203.34211114736706L222.46903999999998,201.82708505483777L222.83403428571427,134.45546135535605L222.90016857142857,182.73449296217697L223.43342857142858,168.58780992948093L223.72475428571428,144.28101231501654L223.74149714285716,90.68808394211987L223.90725142857144,70.3238595815805L224.43214,200.29448347825272L224.61045142857142,50.9783031757061L224.70504857142856,150.4922109750601L224.8088542857143,140.32313919067383L225.12362000000002,163.89873856764572L225.20817142857143,224.12251457801236L225.2190542857143,112.0242696908804L225.4342,79.40455862192006L225.66273999999999,81.01088362473706L225.86867714285714,161.4330062866211L226.18511714285714,123.6357577397273L226.25125142857144,77.10305786132811L226.38352,120.229616018442L226.58359714285712,130.00955787071814L227.2993542857143,91.98027742826022L227.4065085714286,96.78734177809494L227.55635714285717,115.42051814152643L227.63086285714286,157.86171311598557L227.98664857142856,170.7826150747446L228.22858285714287,194.01314427302435L228.27713714285713,109.62215775709885L228.7233342857143,132.25750908484824L229.11595428571428,172.75671797532303L229.33863428571428,149.17361391507663L229.51862,121.23561477661133L230.45370857142856,106.88706383338341L230.57509428571427,156.7375277005709L230.6948057142857,181.5315164419321L230.74168571428572,180.9076593839205L230.87730285714284,99.11114678016075L231.20462571428573,133.9335227379432L231.33187142857145,147.45876957820013L231.34108,212.15020458514874L231.85508571428574,139.49434779240534L232.0869742857143,159.6543479332557L232.10539142857144,176.72148249699518L232.20752285714283,164.67293137770432L232.25272857142858,123.93318528395432L232.5206142857143,174.82749410775992L232.87388857142858,161.06632584791916L234.02244857142855,155.18400984544022L234.1789942857143,220.265446296105L234.19155142857144,168.08599677452676L234.25098857142856,157.84221707857571L234.46446,183.54822657658502L234.47283142857142,160.3125974214994L234.83866285714288,102.72440162071814L235.38029428571429,162.41452202430136L235.60213714285715,135.32090465839093L236.16971999999998,136.28189145601712L236.22832,192.28267728365384L236.4895085714286,168.62388082650992L236.54810857142857,111.22151066706729L236.76492857142856,134.60484490027793L236.84278285714285,125.11062974196213L237.2027542857143,138.0265608567458L237.35762571428572,132.8993935218224L237.3693457142857,210.99922825739935L237.5275657142857,151.33318739670975L237.64978857142856,115.12039536696213L237.88502571428572,128.98988929161658L238.00390000000002,162.35645352877103L238.0432457142857,131.18590486966647L238.07003428571429,118.4762960580679L238.47437428571428,106.89694096491885L238.47939714285715,112.66499211237979L238.61082857142856,140.22987130972055L238.61250285714289,157.61626962515024L238.68700857142858,109.8282379737267L239.0143314285714,67.9471183189979L239.34835142857142,180.4606062082144L239.37262857142858,82.76271878756009L239.77110857142858,121.4471338712252L239.83808,168.5138605557955L240.03564571428572,130.84501471886267L240.37552571428571,133.25651961106522L240.3788742857143,167.31579032311075L240.73298571428572,174.53289090670071L240.94394571428572,157.98667819683368L241.16830000000002,140.01134784405048L241.3281942857143,114.53138263408952L241.43953428571427,142.95371627807617L241.46464857142857,175.71254642193134L241.7501142857143,172.29580130943887L242.18291714285715,150.59256392258865L242.40978285714286,181.70493111243613L242.4357342857143,170.7513536306528L242.75050000000002,166.65400637113132L242.90704571428572,108.38796821007361L243.40933142857142,162.74337240365833L243.61443142857144,121.21907219519981L244.37288285714286,127.16355602557842L244.6123057142857,78.6957291823167L244.9697657142857,181.40850419264572L244.97227714285714,162.00813939021185L245.07357142857143,140.1209000807542L245.38498857142858,190.01329333965595L246.1124657142857,105.1657961331881L246.6750257142857,70.83062744140624L247.19740285714286,137.01634979248047L247.22168,150.8098930945763L247.45356857142858,75.765384380634L247.77000857142858,172.6962608924279L247.88051142857142,138.0616311293382L248.02198857142858,181.76595306396484L248.37693714285712,139.9113983741173L248.38447142857143,77.58387404221753L248.40121428571427,163.4874819242037L248.72686285714286,190.68245286207932L249.1981742857143,156.62139070951022L249.24003142857143,93.64357346754807L249.33630285714287,142.2882848886343L249.5757257142857,116.93317178579477L249.88798,77.89729543832631L250.1048,138.7596635084886L250.2437657142857,118.48207385723406L250.68494,184.25842784001276L251.03737714285717,156.0622353186974L251.41995142857144,195.28088701688327L251.9214,163.66846583439752L252.4211742857143,157.54212658221905L252.76858857142858,145.45545489971454L252.83137428571428,106.08901742788461L252.90922857142857,107.77903982309194L253.45420857142858,169.60636491041916L253.5228542857143,67.25936654897836L254.01844285714287,112.51580223670372L254.03769714285713,185.86207375159628L254.2436342857143,195.67077548687274L254.43031714285712,121.57145338792066L254.79196285714286,112.0341791006235L254.79865999999998,180.20071821946365L255.0020857142857,66.7074737548828L256.15232000000003,160.7588113638071L256.30049428571425,133.65722128061145L256.33146857142856,163.72998809814453L256.3833714285714,153.43624173677884L256.5641942857143,126.59487856351413L256.65795428571425,157.23464437631458L257.0681542857143,183.2304476224459L257.14266,190.44215774536133L257.17782,165.851441016564L257.8734857142857,165.05129652756912L257.93962,192.24508931086615L259.48833428571425,85.05053358811597L259.50005428571427,153.69169147198016L259.71603714285715,198.0860246511606L259.97806285714285,135.79691138634314L260.3932857142857,217.26026447002707L260.5397857142857,151.97152123084433L260.72814285714287,175.8098813570463L261.7176457142857,191.5447329007662L261.8557742857143,176.5834931593675L262.78416571428573,167.59749838022086L262.9507571428571,129.5022574204665L263.20524857142857,210.67365411611706L263.2671971428571,177.23152659489557L263.3006828571429,171.9627709021935L264.16042857142855,102.97830200195312L264.18135714285717,182.9579872718224L264.23326,186.51515872661884L264.76149714285714,115.68545766977162L264.86530285714286,178.85039168137772L265.1306771428571,162.1955789419321L265.18341714285714,187.45079099214993L266.22063714285713,182.1441729618953L266.2591457142857,134.97994995117188L266.39308857142856,112.32744275606595L266.42238857142854,166.50426776592548L266.6149314285714,187.1421790489784L266.81082285714285,151.3779734097994L267.01257428571427,212.14759005033054" style="fill: none;" fill="none"></path></g></g></g></g></g></g><g transform="translate(37, 176)" clip-path="url(#clip_1)"><clipPath id="clip_1"><rect width="293" height="24"></rect></clipPath><g><g><line x1="0" y1="0" x2="0" y2="5" style="visibility: inherit;" fill="rgb(0, 0, 0)" stroke="rgb(204, 204, 204)" stroke-width="1px"></line><line x1="41.857142857142854" y1="0" x2="41.857142857142854" y2="5" style="visibility: inherit;" fill="rgb(0, 0, 0)" stroke="rgb(204, 204, 204)" stroke-width="1px"></line><line x1="83.71428571428571" y1="0" x2="83.71428571428571" y2="5" style="visibility: inherit;" fill="rgb(0, 0, 0)" stroke="rgb(204, 204, 204)" stroke-width="1px"></line><line x1="125.57142857142857" y1="0" x2="125.57142857142857" y2="5" style="visibility: inherit;" fill="rgb(0, 0, 0)" stroke="rgb(204, 204, 204)" stroke-width="1px"></line><line x1="167.42857142857142" y1="0" x2="167.42857142857142" y2="5" style="visibility: inherit;" fill="rgb(0, 0, 0)" stroke="rgb(204, 204, 204)" stroke-width="1px"></line><line x1="209.28571428571428" y1="0" x2="209.28571428571428" y2="5" style="visibility: inherit;" fill="rgb(0, 0, 0)" stroke="rgb(204, 204, 204)" stroke-width="1px"></line><line x1="251.14285714285714" y1="0" x2="251.14285714285714" y2="5" style="visibility: inherit;" fill="rgb(0, 0, 0)" stroke="rgb(204, 204, 204)" stroke-width="1px"></line><line x1="293" y1="0" x2="293" y2="5" style="visibility: inherit;" fill="rgb(0, 0, 0)" stroke="rgb(204, 204, 204)" stroke-width="1px"></line></g><g transform="translate(0, 8)"><text x="0" y="0" dx="0em" dy="0.95em" style="text-anchor: middle; visibility: hidden; font-family: Roboto, sans-serif; font-size: 12px; font-weight: 200;" fill="rgb(255, 255, 255)" stroke="none" stroke-width="1px">750k</text><text x="41.857142857142854" y="0" dx="0em" dy="0.95em" style="text-anchor: middle; visibility: inherit; font-family: Roboto, sans-serif; font-size: 12px; font-weight: 200;" fill="rgb(255, 255, 255)" stroke="none" stroke-width="1px">800k</text><text x="83.71428571428571" y="0" dx="0em" dy="0.95em" style="text-anchor: middle; visibility: inherit; font-family: Roboto, sans-serif; font-size: 12px; font-weight: 200;" fill="rgb(255, 255, 255)" stroke="none" stroke-width="1px">850k</text><text x="125.57142857142857" y="0" dx="0em" dy="0.95em" style="text-anchor: middle; visibility: inherit; font-family: Roboto, sans-serif; font-size: 12px; font-weight: 200;" fill="rgb(255, 255, 255)" stroke="none" stroke-width="1px">900k</text><text x="167.42857142857142" y="0" dx="0em" dy="0.95em" style="text-anchor: middle; visibility: inherit; font-family: Roboto, sans-serif; font-size: 12px; font-weight: 200;" fill="rgb(255, 255, 255)" stroke="none" stroke-width="1px">950k</text><text x="209.28571428571428" y="0" dx="0em" dy="0.95em" style="text-anchor: middle; visibility: inherit; font-family: Roboto, sans-serif; font-size: 12px; font-weight: 200;" fill="rgb(255, 255, 255)" stroke="none" stroke-width="1px">1M</text><text x="251.14285714285714" y="0" dx="0em" dy="0.95em" style="text-anchor: middle; visibility: inherit; font-family: Roboto, sans-serif; font-size: 12px; font-weight: 200;" fill="rgb(255, 255, 255)" stroke="none" stroke-width="1px">1.05M</text><text x="293" y="0" dx="0em" dy="0.95em" style="text-anchor: middle; visibility: hidden; font-family: Roboto, sans-serif; font-size: 12px; font-weight: 200;" fill="rgb(255, 255, 255)" stroke="none" stroke-width="1px">1.1M</text></g><line x1="0" y1="0" x2="293" y2="0" fill="rgb(0, 0, 0)" stroke="rgb(204, 204, 204)" stroke-width="1px"></line></g></g></g></g></svg>